# xmcd
#
# Track frame offsets:
#	150
#	16499
#	34587
#	51243
#	66837
#	86467
#	102293
#	112903
#	122988
#	146215
#	166118
#	182597
#	202642
#	221900
#	238739
#	251122
#
# Disc length: 3578 seconds
#
# Revision: 2
# Processed by: cddbd v1.5.2PL0 Copyright (c) Steve Scherf et al.
# Submitted via: audiograbber 1.83.01
#
DISCID=e00df810
DTITLE=Various Artist - John Laws - Collection 6 [Disc 2]
DYEAR=2006
DGENRE=Country
TTITLE0=Michael Bublé - Save The Last Dance For Me
TTITLE1=Il Divo and Céline Dion - I Believe In You (Je Crois En Toi) (English F
TTITLE1=rench Version)
TTITLE2=Hayley Westenra - Both Sides Now
TTITLE3=Trick Pony - It's A Heartache
TTITLE4=Mark Knopfler and Emmylou Harris - Love And Happiness
TTITLE5=Reba McEntire - Room To Breathe
TTITLE6=Willie Nelson - Something To Think About
TTITLE7=Van Morrison - There Stands The Glass
TTITLE8=Trisha Yearwood - Georgia Rain
TTITLE9=The Notorious Cherry Bombs - It's Hard To Kiss The Lips At Night That C
TTITLE9=hew Your Ass Out All Day Long
TTITLE10=Paul Overstreet - I Think She Only Loves Me For My Willie
TTITLE11=Jimmy Barnes with Troy Cassar-Daley feat. Bella - Bird On A Wire
TTITLE12=Los Lobos featuring Dave Alvin - Somewhere In Time
TTITLE13=Joe Firstman - Can't Stop Loving You
TTITLE14=Patrizio Buanne - That's Amore
TTITLE15=Suzie Quatro - 15 Minutes Of Fame
EXTD=
EXTT0=
EXTT1=
EXTT2=
EXTT3=
EXTT4=
EXTT5=
EXTT6=
EXTT7=
EXTT8=
EXTT9=
EXTT10=
EXTT11=
EXTT12=
EXTT13=
EXTT14=
EXTT15=
PLAYORDER=
